<?xml version="1.0" encoding="UTF-8" standalone="no"?>
<svg
   xmlns:dc="http://purl.org/dc/elements/1.1/"
   xmlns:cc="http://creativecommons.org/ns#"
   xmlns:rdf="http://www.w3.org/1999/02/22-rdf-syntax-ns#"
   xmlns:svg="http://www.w3.org/2000/svg"
   xmlns="http://www.w3.org/2000/svg"
   xml:space="preserve"
   style="enable-background:new 0 0 385.331 385.331;"
   viewBox="0 0 385.331 385.331"
   y="0px"
   x="0px"
   id="Capa_1"
   version="1.1"><metadata
   id="metadata3923"><rdf:RDF><cc:Work
       rdf:about=""><dc:format>image/svg+xml</dc:format><dc:type
         rdf:resource="http://purl.org/dc/dcmitype/StillImage" /><dc:title></dc:title></cc:Work></rdf:RDF></metadata><defs
   id="defs3921" />
<g
   style="fill:#ffffff"
   id="g3886">
	<g
   style="fill:#ffffff"
   id="Fullscreen_Exit">
		<path
   style="fill:#ffffff"
   id="path3865"
   d="M264.943,156.665h108.273c6.833,0,11.934-5.39,11.934-12.211c0-6.833-5.101-11.85-11.934-11.838h-96.242V36.181    c0-6.833-5.197-12.03-12.03-12.03s-12.03,5.197-12.03,12.03v108.273c0,0.036,0.012,0.06,0.012,0.084    c0,0.036-0.012,0.06-0.012,0.096C252.913,151.347,258.23,156.677,264.943,156.665z" />
		<path
   style="fill:#ffffff"
   id="path3867"
   d="M120.291,24.247c-6.821,0-11.838,5.113-11.838,11.934v96.242H12.03c-6.833,0-12.03,5.197-12.03,12.03    c0,6.833,5.197,12.03,12.03,12.03h108.273c0.036,0,0.06-0.012,0.084-0.012c0.036,0,0.06,0.012,0.096,0.012    c6.713,0,12.03-5.317,12.03-12.03V36.181C132.514,29.36,127.124,24.259,120.291,24.247z" />
		<path
   style="fill:#ffffff"
   id="path3869"
   d="M120.387,228.666H12.115c-6.833,0.012-11.934,5.39-11.934,12.223c0,6.833,5.101,11.85,11.934,11.838h96.242v96.423    c0,6.833,5.197,12.03,12.03,12.03c6.833,0,12.03-5.197,12.03-12.03V240.877c0-0.036-0.012-0.06-0.012-0.084    c0-0.036,0.012-0.06,0.012-0.096C132.418,233.983,127.1,228.666,120.387,228.666z" />
		<path
   style="fill:#ffffff"
   id="path3871"
   d="M373.3,228.666H265.028c-0.036,0-0.06,0.012-0.084,0.012c-0.036,0-0.06-0.012-0.096-0.012    c-6.713,0-12.03,5.317-12.03,12.03v108.273c0,6.833,5.39,11.922,12.223,11.934c6.821,0.012,11.838-5.101,11.838-11.922v-96.242    H373.3c6.833,0,12.03-5.197,12.03-12.03S380.134,228.678,373.3,228.666z" />
	</g>
	<g
   style="fill:#ffffff"
   id="g3874">
	</g>
	<g
   style="fill:#ffffff"
   id="g3876">
	</g>
	<g
   style="fill:#ffffff"
   id="g3878">
	</g>
	<g
   style="fill:#ffffff"
   id="g3880">
	</g>
	<g
   style="fill:#ffffff"
   id="g3882">
	</g>
	<g
   style="fill:#ffffff"
   id="g3884">
	</g>
</g>
<g
   id="g3888">
</g>
<g
   id="g3890">
</g>
<g
   id="g3892">
</g>
<g
   id="g3894">
</g>
<g
   id="g3896">
</g>
<g
   id="g3898">
</g>
<g
   id="g3900">
</g>
<g
   id="g3902">
</g>
<g
   id="g3904">
</g>
<g
   id="g3906">
</g>
<g
   id="g3908">
</g>
<g
   id="g3910">
</g>
<g
   id="g3912">
</g>
<g
   id="g3914">
</g>
<g
   id="g3916">
</g>
</svg>