<?xml version="1.0" encoding="UTF-8" standalone="no"?>
<svg
   xmlns:dc="http://purl.org/dc/elements/1.1/"
   xmlns:cc="http://creativecommons.org/ns#"
   xmlns:rdf="http://www.w3.org/1999/02/22-rdf-syntax-ns#"
   xmlns:svg="http://www.w3.org/2000/svg"
   xmlns="http://www.w3.org/2000/svg"
   xml:space="preserve"
   style="enable-background:new 0 0 469.333 469.333;"
   viewBox="0 0 469.333 469.333"
   y="0px"
   x="0px"
   id="Layer_1"
   version="1.1"><metadata
   id="metadata51"><rdf:RDF><cc:Work
       rdf:about=""><dc:format>image/svg+xml</dc:format><dc:type
         rdf:resource="http://purl.org/dc/dcmitype/StillImage" /><dc:title></dc:title></cc:Work></rdf:RDF></metadata><defs
   id="defs49" />
<g
   style="fill:#ffffff"
   id="g14">
	<g
   style="fill:#ffffff"
   id="g12">
		<g
   style="fill:#ffffff"
   id="g10">
			<path
   style="fill:#ffffff"
   id="path2"
   d="M160,0H10.667C4.771,0,0,4.771,0,10.667V160c0,5.896,4.771,10.667,10.667,10.667S21.333,165.896,21.333,160V21.333H160     c5.896,0,10.667-4.771,10.667-10.667S165.896,0,160,0z" />
			<path
   style="fill:#ffffff"
   id="path4"
   d="M458.667,0H309.333c-5.896,0-10.667,4.771-10.667,10.667s4.771,10.667,10.667,10.667H448V160     c0,5.896,4.771,10.667,10.667,10.667c5.896,0,10.667-4.771,10.667-10.667V10.667C469.333,4.771,464.563,0,458.667,0z" />
			<path
   style="fill:#ffffff"
   id="path6"
   d="M458.667,298.667c-5.896,0-10.667,4.771-10.667,10.667V448H309.333c-5.896,0-10.667,4.771-10.667,10.667     c0,5.896,4.771,10.667,10.667,10.667h149.333c5.896,0,10.667-4.771,10.667-10.667V309.333     C469.333,303.437,464.563,298.667,458.667,298.667z" />
			<path
   style="fill:#ffffff"
   id="path8"
   d="M160,448H21.333V309.333c0-5.896-4.771-10.667-10.667-10.667S0,303.437,0,309.333v149.333     c0,5.896,4.771,10.667,10.667,10.667H160c5.896,0,10.667-4.771,10.667-10.667C170.667,452.771,165.896,448,160,448z" />
		</g>
	</g>
</g>
<g
   id="g16">
</g>
<g
   id="g18">
</g>
<g
   id="g20">
</g>
<g
   id="g22">
</g>
<g
   id="g24">
</g>
<g
   id="g26">
</g>
<g
   id="g28">
</g>
<g
   id="g30">
</g>
<g
   id="g32">
</g>
<g
   id="g34">
</g>
<g
   id="g36">
</g>
<g
   id="g38">
</g>
<g
   id="g40">
</g>
<g
   id="g42">
</g>
<g
   id="g44">
</g>
</svg>